<svg width="132" height="38" viewBox="0 0 132 38" fill="none" xmlns="http://www.w3.org/2000/svg">
<path d="M130.374 33.6173C130.374 35.6424 128.705 37.2827 126.641 37.2827H4.46859C2.40527 37.2827 0.730469 35.6424 0.730469 33.6173V4.38687C0.730469 2.36276 2.40527 0.716675 4.46859 0.716675H126.64C128.705 0.716675 130.373 2.36276 130.373 4.38687L130.374 33.6173Z" fill="black"></path>
<path d="M126.244 0.76119C128.493 0.76119 130.322 2.55075 130.322 4.75V33.25C130.322 35.4493 128.493 37.2388 126.244 37.2388H4.85556C2.60743 37.2388 0.778103 35.4493 0.778103 33.25V4.75C0.778103 2.55075 2.60743 0.76119 4.85556 0.76119H126.244ZM126.244 3.8147e-06H4.85556C2.18621 3.8147e-06 0 2.13869 0 4.75V33.25C0 35.8613 2.18621 38 4.85556 38H126.244C128.914 38 131.1 35.8613 131.1 33.25V4.75C131.1 2.13869 128.914 3.8147e-06 126.244 3.8147e-06Z" fill="#505050"></path>
<path d="M35.9109 18.9754C35.8879 16.4753 38.0036 15.2589 38.1003 15.2023C36.9021 13.4934 35.045 13.2599 34.3924 13.2413C32.8327 13.0807 31.3197 14.1543 30.5251 14.1543C29.7147 14.1543 28.4912 13.2568 27.1725 13.2832C25.4755 13.3088 23.888 14.2699 23.0174 15.7624C21.2205 18.8055 22.5606 23.2776 24.2821 25.7374C25.1433 26.9421 26.1496 28.2872 27.4667 28.2399C28.7552 28.1879 29.2366 27.4362 30.7916 27.4362C32.3323 27.4362 32.7843 28.2399 34.1276 28.2096C35.5105 28.1879 36.3812 26.9995 37.2122 25.7839C38.2073 24.4032 38.607 23.0433 38.6229 22.9735C38.5904 22.9626 35.9371 21.972 35.9109 18.9754Z" fill="white"></path>
<path d="M33.3735 11.6231C34.0665 10.7752 34.5407 9.62174 34.4091 8.45117C33.406 8.49461 32.1515 9.12993 31.4291 9.95918C30.79 10.6899 30.219 11.8876 30.3665 13.014C31.4933 13.0962 32.6503 12.4578 33.3735 11.6231Z" fill="white"></path>
<path d="M50.9137 11.3909C50.9137 12.3039 50.6338 12.9912 50.0748 13.4528C49.557 13.8786 48.8211 14.092 47.868 14.092C47.3954 14.092 46.9909 14.0718 46.6523 14.0315V9.04278C47.094 8.97297 47.5698 8.93729 48.0836 8.93729C48.9916 8.93729 49.6759 9.13044 50.1374 9.51675C50.6544 9.95348 50.9137 10.5779 50.9137 11.3909ZM50.0375 11.4134C50.0375 10.8215 49.8773 10.3677 49.557 10.0512C49.2366 9.73551 48.7688 9.57726 48.1526 9.57726C47.891 9.57726 47.6681 9.59432 47.4834 9.63001V13.4225C47.5857 13.438 47.7728 13.445 48.0448 13.445C48.6807 13.445 49.1716 13.272 49.5173 12.9261C49.8631 12.5801 50.0375 12.0759 50.0375 11.4134Z" fill="white"></path>
<path d="M55.5595 12.189C55.5595 12.7514 55.3954 13.2122 55.0671 13.5737C54.723 13.9452 54.267 14.1306 53.6977 14.1306C53.1489 14.1306 52.712 13.953 52.3861 13.5962C52.061 13.2401 51.8984 12.791 51.8984 12.2495C51.8984 11.6832 52.0658 11.2186 52.402 10.8579C52.7382 10.4971 53.1902 10.3164 53.7595 10.3164C54.3083 10.3164 54.7491 10.494 55.083 10.8501C55.4002 11.1961 55.5595 11.6429 55.5595 12.189ZM54.6976 12.2154C54.6976 11.8779 54.6231 11.5886 54.4748 11.3473C54.3003 11.0557 54.0521 10.9098 53.7294 10.9098C53.3956 10.9098 53.1418 11.0557 52.9674 11.3473C52.8183 11.5886 52.7445 11.8826 52.7445 12.2301C52.7445 12.5676 52.8191 12.8569 52.9674 13.0982C53.1474 13.3898 53.3979 13.5357 53.7215 13.5357C54.0386 13.5357 54.2876 13.3875 54.4668 13.0904C54.6207 12.8445 54.6976 12.5528 54.6976 12.2154Z" fill="white"></path>
<path d="M61.7948 10.3906L60.6252 14.0474H59.864L59.3795 12.4595C59.2566 12.0631 59.1567 11.669 59.0789 11.2781H59.0639C58.9917 11.6799 58.8918 12.0732 58.7633 12.4595L58.2487 14.0474H57.4787L56.3789 10.3906H57.2329L57.6556 12.129C57.7579 12.5402 57.8419 12.9319 57.9093 13.3027H57.9244C57.9862 12.9971 58.0885 12.6076 58.2328 12.1368L58.7633 10.3914H59.4405L59.9488 12.0995C60.0717 12.5161 60.1716 12.9172 60.2486 13.3035H60.2716C60.3279 12.9272 60.4127 12.5262 60.5253 12.0995L60.9789 10.3914H61.7948V10.3906Z" fill="white"></path>
<path d="M66.0968 14.0461H65.2658V11.9516C65.2658 11.3062 65.0152 10.9835 64.5125 10.9835C64.2659 10.9835 64.0668 11.0719 63.9122 11.2496C63.7592 11.4272 63.6815 11.6367 63.6815 11.8764V14.0453H62.8504V11.4342C62.8504 11.113 62.8401 10.7647 62.8203 10.3877H63.5506L63.5895 10.9595H63.6125C63.7092 10.7818 63.8535 10.6352 64.0431 10.5181C64.2683 10.3815 64.5204 10.3125 64.7964 10.3125C65.1453 10.3125 65.4355 10.4227 65.6662 10.6437C65.9533 10.9145 66.0968 11.3186 66.0968 11.8554V14.0461V14.0461Z" fill="white"></path>
<path d="M68.3888 14.0466H67.5586V8.71191H68.3888V14.0466Z" fill="white"></path>
<path d="M73.2783 12.189C73.2783 12.7514 73.1142 13.2122 72.7859 13.5737C72.4417 13.9452 71.985 14.1306 71.4164 14.1306C70.8669 14.1306 70.43 13.953 70.1049 13.5962C69.7797 13.2401 69.6172 12.791 69.6172 12.2495C69.6172 11.6832 69.7845 11.2186 70.1207 10.8579C70.4569 10.4971 70.9089 10.3164 71.4775 10.3164C72.027 10.3164 72.4671 10.494 72.8017 10.8501C73.1189 11.1961 73.2783 11.6429 73.2783 12.189ZM72.4156 12.2154C72.4156 11.8779 72.341 11.5886 72.1927 11.3473C72.0191 11.0557 71.7701 10.9098 71.4481 10.9098C71.1135 10.9098 70.8598 11.0557 70.6861 11.3473C70.537 11.5886 70.4633 11.8826 70.4633 12.2301C70.4633 12.5676 70.5378 12.8569 70.6861 13.0982C70.8661 13.3898 71.1167 13.5357 71.4402 13.5357C71.7574 13.5357 72.0056 13.3875 72.1848 13.0904C72.3394 12.8445 72.4156 12.5528 72.4156 12.2154Z" fill="white"></path>
<path d="M77.3031 14.0476H76.557L76.4951 13.6264H76.4721C76.2168 13.9623 75.8528 14.1306 75.3802 14.1306C75.0273 14.1306 74.7419 14.0197 74.527 13.7994C74.3319 13.5993 74.2344 13.3503 74.2344 13.0547C74.2344 12.6079 74.4247 12.2674 74.8077 12.0315C75.1899 11.7957 75.7275 11.6801 76.4198 11.6856V11.6173C76.4198 11.1356 76.1613 10.8951 75.6435 10.8951C75.2747 10.8951 74.9496 10.9859 74.6689 11.1658L74.5 10.6321C74.8473 10.4219 75.2763 10.3164 75.7822 10.3164C76.7592 10.3164 77.2492 10.8206 77.2492 11.8291V13.1757C77.2492 13.5411 77.2675 13.832 77.3031 14.0476ZM76.4404 12.791V12.227C75.5237 12.2115 75.0654 12.4574 75.0654 12.964C75.0654 13.1548 75.1177 13.2975 75.2248 13.3929C75.3318 13.4883 75.4682 13.5357 75.6308 13.5357C75.8132 13.5357 75.9836 13.479 76.1391 13.3666C76.2953 13.2533 76.3912 13.1098 76.4269 12.9337C76.4356 12.8941 76.4404 12.846 76.4404 12.791Z" fill="white"></path>
<path d="M82.0254 14.0466H81.2879L81.249 13.4593H81.226C80.9905 13.9062 80.5893 14.1296 80.0255 14.1296C79.5751 14.1296 79.2 13.9566 78.9027 13.6106C78.6053 13.2646 78.457 12.8155 78.457 12.264C78.457 11.6721 78.618 11.1927 78.9415 10.8265C79.2548 10.4852 79.6385 10.3146 80.0953 10.3146C80.5972 10.3146 80.9485 10.4798 81.1483 10.811H81.1642V8.71191H81.996V13.0614C81.996 13.4175 82.0055 13.7456 82.0254 14.0466ZM81.1642 12.5044V11.8947C81.1642 11.7892 81.1563 11.7039 81.1412 11.6387C81.0944 11.4432 80.9937 11.2788 80.8407 11.1461C80.686 11.0135 80.4997 10.9468 80.2848 10.9468C79.9748 10.9468 79.7321 11.067 79.5537 11.3083C79.3769 11.5495 79.2873 11.8575 79.2873 12.2337C79.2873 12.5952 79.3721 12.8884 79.5426 13.1141C79.7226 13.3546 79.9652 13.4749 80.2689 13.4749C80.5417 13.4749 80.7598 13.3748 80.9255 13.1739C81.0857 12.9885 81.1642 12.7651 81.1642 12.5044Z" fill="white"></path>
<path d="M89.1377 12.189C89.1377 12.7514 88.9735 13.2122 88.6452 13.5737C88.3011 13.9452 87.8459 14.1306 87.2758 14.1306C86.7279 14.1306 86.2909 13.953 85.9642 13.5962C85.6391 13.2401 85.4766 12.791 85.4766 12.2495C85.4766 11.6832 85.6439 11.2186 85.9801 10.8579C86.3163 10.4971 86.7683 10.3164 87.3384 10.3164C87.8864 10.3164 88.3281 10.494 88.6611 10.8501C88.9783 11.1961 89.1377 11.6429 89.1377 12.189ZM88.2765 12.2154C88.2765 11.8779 88.202 11.5886 88.0537 11.3473C87.8784 11.0557 87.631 10.9098 87.3075 10.9098C86.9745 10.9098 86.7207 11.0557 86.5455 11.3473C86.3964 11.5886 86.3227 11.8826 86.3227 12.2301C86.3227 12.5676 86.3972 12.8569 86.5455 13.0982C86.7255 13.3898 86.9761 13.5357 87.2996 13.5357C87.6168 13.5357 87.8666 13.3875 88.0458 13.0904C88.1988 12.8445 88.2765 12.5528 88.2765 12.2154Z" fill="white"></path>
<path d="M93.596 14.0461H92.7658V11.9516C92.7658 11.3062 92.5152 10.9835 92.0117 10.9835C91.7651 10.9835 91.5661 11.0719 91.4122 11.2496C91.2584 11.4272 91.1815 11.6367 91.1815 11.8764V14.0453H90.3497V11.4342C90.3497 11.113 90.3401 10.7647 90.3203 10.3877H91.0498L91.0887 10.9595H91.1117C91.2092 10.7818 91.3535 10.6352 91.5423 10.5181C91.7683 10.3815 92.0196 10.3125 92.2964 10.3125C92.6445 10.3125 92.9347 10.4227 93.1655 10.6437C93.4533 10.9145 93.596 11.3186 93.596 11.8554V14.0461V14.0461Z" fill="white"></path>
<path d="M99.1906 10.9991H98.2756V12.7755C98.2756 13.227 98.4381 13.4527 98.7601 13.4527C98.9091 13.4527 99.0329 13.4403 99.1304 13.4147L99.1518 14.0314C98.9877 14.0919 98.772 14.1222 98.5063 14.1222C98.178 14.1222 97.9227 14.0245 97.7379 13.829C97.5524 13.6335 97.4604 13.3046 97.4604 12.843V10.9991H96.9141V10.3902H97.4604V9.71997L98.2748 9.47949V10.3894H99.1899V10.9991H99.1906Z" fill="white"></path>
<path d="M103.598 14.0466H102.766V11.9676C102.766 11.3121 102.516 10.984 102.014 10.984C101.628 10.984 101.365 11.1741 101.221 11.5542C101.196 11.6341 101.182 11.7318 101.182 11.8466V14.0458H100.352V8.71191H101.182V10.9157H101.198C101.459 10.5147 101.834 10.3146 102.32 10.3146C102.665 10.3146 102.949 10.4247 103.175 10.6458C103.457 10.9212 103.598 11.3308 103.598 11.8722V14.0466V14.0466Z" fill="white"></path>
<path d="M108.136 12.0454C108.136 12.1913 108.125 12.3138 108.105 12.4139H105.613C105.624 12.7754 105.743 13.0508 105.973 13.2416C106.184 13.4123 106.456 13.4976 106.789 13.4976C107.158 13.4976 107.494 13.4402 107.797 13.3246L107.927 13.8893C107.573 14.0398 107.156 14.1151 106.673 14.1151C106.094 14.1151 105.638 13.9483 105.308 13.6147C104.977 13.2812 104.812 12.8336 104.812 12.272C104.812 11.7204 104.966 11.2612 105.274 10.895C105.596 10.5041 106.031 10.3086 106.581 10.3086C107.118 10.3086 107.527 10.5041 107.803 10.895C108.026 11.2053 108.136 11.5893 108.136 12.0454ZM107.343 11.8352C107.349 11.594 107.294 11.3861 107.182 11.2108C107.038 10.985 106.818 10.8718 106.521 10.8718C106.249 10.8718 106.028 10.9819 105.859 11.203C105.721 11.3791 105.64 11.5893 105.613 11.8352H107.343Z" fill="white"></path>
<path d="M54.5576 28.0656H52.7568L51.7703 25.0333H48.3416L47.4019 28.0656H45.6487L49.0457 17.7423H51.1439L54.5576 28.0656ZM51.473 23.7611L50.5809 21.0655C50.4865 20.7901 50.3097 20.1416 50.0488 19.1207H50.0171C49.9132 19.5598 49.7459 20.2083 49.516 21.0655L48.6397 23.7611H51.473V23.7611Z" fill="white"></path>
<path d="M63.2887 24.2509C63.2887 25.5168 62.939 26.5175 62.2396 27.2521C61.6132 27.9061 60.8353 28.2326 59.9067 28.2326C58.9044 28.2326 58.1844 27.8805 57.7459 27.1761H57.7142V31.0974H56.0236V23.071C56.0236 22.2751 56.0022 21.4583 55.9609 20.6205H57.4477L57.5421 21.8003H57.5738C58.1376 20.9114 58.9932 20.4677 60.1414 20.4677C61.0391 20.4677 61.7884 20.8144 62.3879 21.5087C62.989 22.2037 63.2887 23.1175 63.2887 24.2509ZM61.5664 24.3114C61.5664 23.5868 61.3999 22.9895 61.0652 22.5194C60.6997 22.0292 60.2088 21.7841 59.5935 21.7841C59.1764 21.7841 58.7974 21.9206 58.4588 22.1898C58.1194 22.4613 57.8973 22.8158 57.7935 23.2548C57.7411 23.4596 57.715 23.6272 57.715 23.759V25.0002C57.715 25.5417 57.8847 25.9986 58.2241 26.3717C58.5634 26.7448 59.0043 26.931 59.5467 26.931C60.1835 26.931 60.6791 26.6905 61.0335 26.2111C61.3888 25.7309 61.5664 25.0979 61.5664 24.3114Z" fill="white"></path>
<path d="M72.0457 24.2509C72.0457 25.5168 71.696 26.5175 70.9958 27.2521C70.3702 27.9061 69.5923 28.2326 68.6637 28.2326C67.6614 28.2326 66.9414 27.8805 66.5037 27.1761H66.472V31.0974H64.7814V23.071C64.7814 22.2751 64.76 21.4583 64.7188 20.6205H66.2056L66.2999 21.8003H66.3316C66.8946 20.9114 67.7502 20.4677 68.8992 20.4677C69.7961 20.4677 70.5454 20.8144 71.1465 21.5087C71.7452 22.2037 72.0457 23.1175 72.0457 24.2509ZM70.3234 24.3114C70.3234 23.5868 70.1561 22.9895 69.8215 22.5194C69.4559 22.0292 68.9666 21.7841 68.3505 21.7841C67.9326 21.7841 67.5544 21.9206 67.215 22.1898C66.8756 22.4613 66.6544 22.8158 66.5505 23.2548C66.4989 23.4596 66.472 23.6272 66.472 23.759V25.0002C66.472 25.5417 66.6417 25.9986 66.9795 26.3717C67.3189 26.744 67.7598 26.931 68.3037 26.931C68.9405 26.931 69.4361 26.6905 69.7905 26.2111C70.1458 25.7309 70.3234 25.0979 70.3234 24.3114Z" fill="white"></path>
<path d="M81.8321 25.1704C81.8321 26.0485 81.5205 26.7629 80.8948 27.3145C80.2073 27.9172 79.2502 28.2182 78.0203 28.2182C76.8848 28.2182 75.9745 28.0041 75.2854 27.5751L75.6771 26.1966C76.4193 26.6357 77.2337 26.856 78.121 26.856C78.7578 26.856 79.2534 26.7148 79.6094 26.434C79.9639 26.1532 80.1407 25.7762 80.1407 25.3061C80.1407 24.8872 79.9948 24.5343 79.7022 24.248C79.4112 23.9618 78.9251 23.6957 78.2463 23.4498C76.3987 22.7757 75.4757 21.7882 75.4757 20.4896C75.4757 19.641 75.7992 18.9452 76.4471 18.4037C77.0926 17.8615 77.9537 17.5908 79.0306 17.5908C79.9908 17.5908 80.7886 17.7544 81.4253 18.081L81.0027 19.4292C80.4079 19.1127 79.7355 18.9545 78.983 18.9545C78.3883 18.9545 77.9236 19.098 77.5905 19.3835C77.309 19.6387 77.1679 19.9497 77.1679 20.3182C77.1679 20.7262 77.3289 21.0637 77.6524 21.329C77.9339 21.5741 78.4454 21.8394 79.1876 22.1256C80.0955 22.4832 80.7624 22.9014 81.1914 23.3808C81.6188 23.8586 81.8321 24.4567 81.8321 25.1704Z" fill="white"></path>
<path d="M87.4234 21.8625H85.5599V25.4766C85.5599 26.3958 85.8882 26.855 86.5464 26.855C86.8485 26.855 87.0991 26.8294 87.2973 26.7782L87.3441 28.0341C87.011 28.1559 86.5725 28.2172 86.0293 28.2172C85.3617 28.2172 84.8399 28.0178 84.4633 27.6199C84.0882 27.2212 83.8994 26.5525 83.8994 25.6131V21.8609H82.7893V20.6197H83.8994V19.2568L85.5599 18.7665V20.6197H87.4234V21.8625Z" fill="white"></path>
<path d="M95.8283 24.2823C95.8283 25.4265 95.4937 26.3659 94.826 27.1006C94.1258 27.8569 93.1965 28.2339 92.0379 28.2339C90.9214 28.2339 90.0325 27.8716 89.3696 27.1471C88.7067 26.4226 88.3752 25.508 88.3752 24.4057C88.3752 23.2522 88.7162 22.3074 89.4005 21.5727C90.0833 20.8374 91.0047 20.4697 92.1632 20.4697C93.2797 20.4697 94.1781 20.8319 94.8561 21.5572C95.5048 22.2608 95.8283 23.1692 95.8283 24.2823ZM94.0743 24.3359C94.0743 23.6494 93.9244 23.0606 93.6207 22.5696C93.2662 21.9753 92.7595 21.679 92.103 21.679C91.4234 21.679 90.9072 21.9761 90.5527 22.5696C90.249 23.0614 90.0991 23.6594 90.0991 24.3669C90.0991 25.0534 90.249 25.6422 90.5527 26.1324C90.9183 26.7267 91.4289 27.023 92.0879 27.023C92.7334 27.023 93.2401 26.7204 93.6056 26.1169C93.9173 25.6166 94.0743 25.0216 94.0743 24.3359Z" fill="white"></path>
<path d="M101.325 22.0749C101.158 22.0446 100.98 22.0291 100.792 22.0291C100.198 22.0291 99.7377 22.2487 99.4142 22.6885C99.1327 23.0763 98.9915 23.5666 98.9915 24.1585V28.0643H97.3017L97.3176 22.9646C97.3176 22.1067 97.2962 21.3255 97.2542 20.6212H98.7267L98.7885 22.0454H98.8353C99.0137 21.5559 99.2952 21.1619 99.6806 20.8663C100.057 20.6002 100.464 20.4676 100.903 20.4676C101.059 20.4676 101.2 20.4785 101.325 20.4978V22.0749Z" fill="white"></path>
<path d="M108.887 23.9907C108.887 24.2871 108.868 24.5369 108.826 24.7409H103.754C103.774 25.4763 104.019 26.0387 104.49 26.4265C104.917 26.7733 105.47 26.947 106.148 26.947C106.899 26.947 107.585 26.8299 108.201 26.5949L108.466 27.7429C107.746 28.0501 106.895 28.2029 105.915 28.2029C104.735 28.2029 103.808 27.8632 103.134 27.1844C102.462 26.5056 102.125 25.5942 102.125 24.4508C102.125 23.3283 102.438 22.3935 103.065 21.6481C103.722 20.8522 104.609 20.4542 105.726 20.4542C106.823 20.4542 107.653 20.8522 108.217 21.6481C108.663 22.2803 108.887 23.0622 108.887 23.9907ZM107.275 23.5618C107.286 23.0715 107.176 22.648 106.947 22.2904C106.654 21.8304 106.205 21.6007 105.6 21.6007C105.047 21.6007 104.597 21.8249 104.254 22.2748C103.973 22.6325 103.805 23.0614 103.754 23.561H107.275V23.5618Z" fill="white"></path>
</svg>