<svg width="132" height="38" viewBox="0 0 132 38" fill="none" xmlns="http://www.w3.org/2000/svg">
<path d="M126.244 38H4.85556C2.18621 38 0 35.8613 0 33.25V4.75C0 2.13869 2.18621 2.86102e-06 4.85556 2.86102e-06H126.244C128.914 2.86102e-06 131.1 2.13869 131.1 4.75V33.25C131.1 35.8613 128.914 38 126.244 38Z" fill="black"></path>
<path d="M126.244 0.761189C128.493 0.761189 130.322 2.55075 130.322 4.75V33.25C130.322 35.4493 128.493 37.2388 126.244 37.2388H4.85556C2.60743 37.2388 0.778103 35.4493 0.778103 33.25V4.75C0.778103 2.55075 2.60743 0.761189 4.85556 0.761189H126.244ZM126.244 2.86102e-06H4.85556C2.18621 2.86102e-06 0 2.13869 0 4.75V33.25C0 35.8613 2.18621 38 4.85556 38H126.244C128.914 38 131.1 35.8613 131.1 33.25V4.75C131.1 2.13869 128.914 2.86102e-06 126.244 2.86102e-06Z" fill="#505050"></path>
<path d="M20.9374 9.54122C20.7073 9.77678 20.5742 10.1435 20.5742 10.6185V27.5595C20.5742 28.0345 20.7073 28.4012 20.9374 28.6368L20.9941 28.6885L30.6983 19.1991V18.975L20.9941 9.48568L20.9374 9.54122Z" fill="url(#paint0_linear_1636_143)"></path>
<path d="M33.9264 22.3633L30.6953 19.1986V18.9745L33.9304 15.8098L34.0028 15.851L37.8339 17.9834C38.9273 18.5886 38.9273 19.5845 37.8339 20.1935L34.0028 22.3221L33.9264 22.3633V22.3633Z" fill="url(#paint1_linear_1636_143)"></path>
<path d="M34.0096 22.3217L30.7021 19.0862L20.9412 28.6359C21.3043 29.0093 21.8965 29.0543 22.5699 28.6809L34.0096 22.3217" fill="url(#paint2_linear_1636_143)"></path>
<path d="M34.0098 15.8523L22.5702 9.4932C21.8967 9.12358 21.3046 9.16859 20.9414 9.54203L30.7023 19.0879L34.0098 15.8523Z" fill="url(#paint3_linear_1636_143)"></path>
<path d="M49.8977 11.6137C49.8977 12.2533 49.702 12.7656 49.3163 13.1477C48.8729 13.6006 48.2954 13.8285 47.5877 13.8285C46.9113 13.8285 46.3338 13.5968 45.86 13.14C45.3853 12.6765 45.1484 12.1078 45.1484 11.4269C45.1484 10.7461 45.3853 10.1773 45.86 9.7177C46.3338 9.25712 46.9113 9.02539 47.5877 9.02539C47.9244 9.02539 48.2455 9.09338 48.5518 9.21977C48.8572 9.34713 49.1059 9.51949 49.286 9.73207L48.8768 10.1362C48.5626 9.77324 48.1349 9.59418 47.5877 9.59418C47.0944 9.59418 46.6666 9.76271 46.3035 10.1026C45.9442 10.4435 45.7641 10.885 45.7641 11.4269C45.7641 11.9689 45.9442 12.4142 46.3035 12.7551C46.6666 13.0912 47.0944 13.2635 47.5877 13.2635C48.1114 13.2635 48.5518 13.0912 48.8993 12.7512C49.1284 12.5262 49.2586 12.216 49.2928 11.8195H47.5877V11.2661H49.8625C49.8899 11.3858 49.8977 11.5016 49.8977 11.6137V11.6137Z" fill="white" stroke="white" stroke-width="0.16" stroke-miterlimit="10"></path>
<path d="M53.5073 9.69388H51.3705V11.1494H53.2969V11.7028H51.3705V13.1583H53.5073V13.7223H50.7656V9.12988H53.5073V9.69388Z" fill="white" stroke="white" stroke-width="0.16" stroke-miterlimit="10"></path>
<path d="M56.0562 13.7223H55.4513V9.69388H54.1406V9.12988H57.3678V9.69388H56.0562V13.7223V13.7223Z" fill="white" stroke="white" stroke-width="0.16" stroke-miterlimit="10"></path>
<path d="M59.7031 13.7223V9.12988H60.3071V13.7223H59.7031Z" fill="white" stroke="white" stroke-width="0.16" stroke-miterlimit="10"></path>
<path d="M62.9859 13.7223H62.3859V9.69388H61.0703V9.12988H64.3014V9.69388H62.9859V13.7223Z" fill="white" stroke="white" stroke-width="0.16" stroke-miterlimit="10"></path>
<path d="M70.411 13.1323C69.948 13.5968 69.3744 13.8285 68.6902 13.8285C68.0021 13.8285 67.4285 13.5968 66.9655 13.1323C66.5035 12.6689 66.2734 12.1001 66.2734 11.4269C66.2734 10.7538 66.5035 10.185 66.9655 9.72153C67.4285 9.25712 68.0021 9.02539 68.6902 9.02539C69.3705 9.02539 69.9441 9.25712 70.4071 9.72536C70.873 10.1926 71.103 10.7576 71.103 11.4269C71.103 12.1001 70.873 12.6689 70.411 13.1323ZM67.4128 12.7474C67.7613 13.0912 68.1851 13.2635 68.6902 13.2635C69.1913 13.2635 69.6191 13.0912 69.9636 12.7474C70.3111 12.4036 70.4873 11.9622 70.4873 11.4269C70.4873 10.8917 70.3111 10.4502 69.9636 10.1065C69.6191 9.76271 69.1913 9.59035 68.6902 9.59035C68.1851 9.59035 67.7613 9.76271 67.4128 10.1065C67.0653 10.4502 66.8891 10.8917 66.8891 11.4269C66.8891 11.9622 67.0653 12.4036 67.4128 12.7474V12.7474Z" fill="white" stroke="white" stroke-width="0.16" stroke-miterlimit="10"></path>
<path d="M71.9453 13.7223V9.12988H72.6794L74.9621 12.7016H74.9885L74.9621 11.8187V9.12988H75.566V13.7223H74.9356L72.5453 9.97445H72.5189L72.5453 10.8611V13.7223H71.9453V13.7223Z" fill="white" stroke="white" stroke-width="0.16" stroke-miterlimit="10"></path>
<path d="M66.1195 20.4286C64.2803 20.4286 62.7778 21.7979 62.7778 23.6872C62.7778 25.5611 64.2803 26.9448 66.1195 26.9448C67.9627 26.9448 69.4652 25.5611 69.4652 23.6872C69.4652 21.7979 67.9627 20.4286 66.1195 20.4286ZM66.1195 25.6617C65.1103 25.6617 64.2421 24.8468 64.2421 23.6872C64.2421 22.5123 65.1103 21.7118 66.1195 21.7118C67.1287 21.7118 68.0008 22.5123 68.0008 23.6872C68.0008 24.8468 67.1287 25.6617 66.1195 25.6617V25.6617ZM58.8282 20.4286C56.9851 20.4286 55.4865 21.7979 55.4865 23.6872C55.4865 25.5611 56.9851 26.9448 58.8282 26.9448C60.6704 26.9448 62.1699 25.5611 62.1699 23.6872C62.1699 21.7979 60.6704 20.4286 58.8282 20.4286ZM58.8282 25.6617C57.818 25.6617 56.9469 24.8468 56.9469 23.6872C56.9469 22.5123 57.818 21.7118 58.8282 21.7118C59.8374 21.7118 60.7056 22.5123 60.7056 23.6872C60.7056 24.8468 59.8374 25.6617 58.8282 25.6617ZM50.1518 21.4274V22.812H53.5317C53.4329 23.5857 53.1686 24.1545 52.7633 24.5509C52.27 25.0297 51.5016 25.5611 50.1518 25.5611C48.0718 25.5611 46.443 23.9189 46.443 21.8841C46.443 19.8493 48.0718 18.2071 50.1518 18.2071C51.2765 18.2071 52.0948 18.6371 52.6987 19.1943L53.6962 18.2186C52.8514 17.4296 51.7277 16.8234 50.1518 16.8234C47.2995 16.8234 44.9023 19.0938 44.9023 21.8841C44.9023 24.6744 47.2995 26.9448 50.1518 26.9448C51.6935 26.9448 52.8514 26.4507 53.7618 25.5238C54.6946 24.6112 54.9853 23.3281 54.9853 22.292C54.9853 21.9703 54.9579 21.6744 54.909 21.4274H50.1518ZM85.6306 22.5008C85.3556 21.7721 84.5069 20.4286 82.7783 20.4286C81.0653 20.4286 79.6392 21.7491 79.6392 23.6872C79.6392 25.5123 81.0506 26.9448 82.9427 26.9448C84.4726 26.9448 85.3556 26.0322 85.7187 25.5008L84.5833 24.7606C84.2044 25.3026 83.6886 25.6617 82.9427 25.6617C82.2018 25.6617 81.6702 25.3294 81.3296 24.6744L85.7843 22.8714L85.6306 22.5008V22.5008ZM81.0888 23.5857C81.0506 22.3294 82.0863 21.6859 82.8282 21.6859C83.4096 21.6859 83.903 21.9703 84.0674 22.3773L81.0888 23.5857V23.5857ZM77.4681 26.7466H78.9325V17.171H77.4681V26.7466ZM75.07 21.1545H75.021C74.6921 20.7734 74.0647 20.4286 73.2699 20.4286C71.602 20.4286 70.077 21.8611 70.077 23.6977C70.077 25.5238 71.602 26.9448 73.2699 26.9448C74.0647 26.9448 74.6921 26.5972 75.021 26.2046H75.07V26.6719C75.07 27.9177 74.3897 28.587 73.2924 28.587C72.3978 28.587 71.8428 27.955 71.6137 27.4236L70.3403 27.9435C70.7073 28.8072 71.6793 29.8701 73.2924 29.8701C75.0093 29.8701 76.458 28.8819 76.458 26.4775V20.6268H75.07V21.1545V21.1545ZM73.3952 25.6617C72.386 25.6617 71.5413 24.8353 71.5413 23.6977C71.5413 22.5496 72.386 21.7118 73.3952 21.7118C74.3897 21.7118 75.1737 22.5496 75.1737 23.6977C75.1737 24.8353 74.3897 25.6617 73.3952 25.6617V25.6617ZM92.4864 17.171H88.9841V26.7466H90.4445V23.1184H92.4864C94.1083 23.1184 95.6989 21.9703 95.6989 20.1442C95.6989 18.3191 94.1044 17.171 92.4864 17.171V17.171ZM92.5245 21.7864H90.4445V18.503H92.5245C93.6149 18.503 94.2375 19.3887 94.2375 20.1442C94.2375 20.8854 93.6149 21.7864 92.5245 21.7864ZM101.552 20.4104C100.497 20.4104 99.3998 20.8662 98.9486 21.8765L100.245 22.4079C100.524 21.8765 101.036 21.7041 101.579 21.7041C102.336 21.7041 103.105 22.1494 103.116 22.9355V23.0361C102.852 22.8867 102.286 22.6655 101.59 22.6655C100.195 22.6655 98.7724 23.4172 98.7724 24.82C98.7724 26.1031 99.9157 26.9295 101.201 26.9295C102.184 26.9295 102.726 26.4957 103.067 25.9911H103.116V26.7313H104.527V23.0581C104.527 21.3603 103.231 20.4104 101.552 20.4104ZM101.376 25.6578C100.898 25.6578 100.233 25.4261 100.233 24.8468C100.233 24.1056 101.063 23.8212 101.781 23.8212C102.424 23.8212 102.726 23.9601 103.116 24.143C103.002 25.0297 102.222 25.6578 101.376 25.6578V25.6578ZM109.666 20.6201L107.987 24.7711H107.937L106.202 20.6201H104.627L107.234 26.421L105.747 29.6489H107.273L111.291 20.6201H109.666V20.6201ZM96.5015 26.7466H97.9659V17.171H96.5015V26.7466Z" fill="white"></path>
<defs>
<linearGradient id="paint0_linear_1636_143" x1="29.8367" y1="27.7359" x2="16.9837" y2="14.5974" gradientUnits="userSpaceOnUse">
<stop stop-color="#00A0FF"></stop>
<stop offset="0.0066" stop-color="#00A1FF"></stop>
<stop offset="0.2601" stop-color="#00BEFF"></stop>
<stop offset="0.5122" stop-color="#00D2FF"></stop>
<stop offset="0.7604" stop-color="#00DFFF"></stop>
<stop offset="1" stop-color="#00E3FF"></stop>
</linearGradient>
<linearGradient id="paint1_linear_1636_143" x1="39.2577" y1="19.0855" x2="20.3099" y2="19.0855" gradientUnits="userSpaceOnUse">
<stop stop-color="#FFE000"></stop>
<stop offset="0.4087" stop-color="#FFBD00"></stop>
<stop offset="0.7754" stop-color="#FFA500"></stop>
<stop offset="1" stop-color="#FF9C00"></stop>
</linearGradient>
<linearGradient id="paint2_linear_1636_143" x1="32.2111" y1="17.3273" x2="14.7814" y2="-0.48971" gradientUnits="userSpaceOnUse">
<stop stop-color="#FF3A44"></stop>
<stop offset="1" stop-color="#C31162"></stop>
</linearGradient>
<linearGradient id="paint3_linear_1636_143" x1="18.4844" y1="34.2738" x2="26.2675" y2="26.3178" gradientUnits="userSpaceOnUse">
<stop stop-color="#32A071"></stop>
<stop offset="0.0685" stop-color="#2DA771"></stop>
<stop offset="0.4762" stop-color="#15CF74"></stop>
<stop offset="0.8009" stop-color="#06E775"></stop>
<stop offset="1" stop-color="#00F076"></stop>
</linearGradient>
</defs>
</svg>